<svg xmlns="http://www.w3.org/2000/svg" viewBox="0 0 600 400" fill="none"><defs><pattern id="grid" width="24" height="24" patternUnits="userSpaceOnUse"><circle cx="1" cy="1" r="1" fill="#383c44" opacity=".55"/></pattern><linearGradient id="wash" x2="1" y2="1"><stop stop-color="#151515"/><stop offset="1" stop-color="#101010"/></linearGradient></defs><rect width="600" height="400" fill="url(#grid)"/><path d="m162 306 123-43 122 43-123 48Z" fill="#303030" stroke="#ffffff" stroke-width="2"/><ellipse cx="285" cy="303" rx="45" ry="17" fill="#5f5f5f" stroke="#ffffff" stroke-width="2"/><path d="M266 300V227h39v73" fill="#242424" stroke="#ffffff" stroke-width="2"/><path d="m279 227-80-95 26-23 79 106Z" fill="#444444" stroke="#ffffff" stroke-width="2"/><path d="m211 112 119-42 11 32-117 42Z" fill="#313131" stroke="#ffffff" stroke-width="2"/><path d="m337 86 28 63-22 9-28-62Z" fill="#444444" stroke="#ffffff" stroke-width="2"/><path d="m343 149-7 29 14 9m13-38 19 20-9 15" stroke="#ffffff" stroke-width="6" stroke-linejoin="round"/><circle cx="285" cy="223" r="16" fill="#E21B2D" stroke="#111317" stroke-width="2"/><circle cx="215" cy="127" r="16" fill="#E21B2D" stroke="#111317" stroke-width="2"/><circle cx="331" cy="88" r="14" fill="#E21B2D" stroke="#111317" stroke-width="2"/><path d="M285 223h120V98h62" stroke="#aeb2ba" stroke-dasharray="4 5"/><text x="418" y="84" fill="#aeb2ba" font-family="monospace" font-size="10" letter-spacing="1.5">PERCEPTION</text><path d="m363 218 30-12 29 15-29 12Z" fill="#555555" stroke="#ffffff"/><path d="M363 218v31l30 16v-32m0 32 29-13v-31" stroke="#ffffff"/><path d="M346 207h-10v65h10m89-65h10v65h-10" stroke="#aeb2ba"/><path d="M354 190v15" stroke="#aeb2ba" stroke-dasharray="3 3"/></svg>